<svg width="459" height="104" viewBox="0 0 459 104" fill="none" xmlns="http://www.w3.org/2000/svg">
<path d="M189.559 12.175C190.423 12.175 191.152 12.472 191.746 13.066C192.34 13.66 192.664 14.416 192.718 15.334V75.355C192.718 77.245 192.34 79.027 191.584 80.701C190.882 82.375 189.91 83.833 188.668 85.075C187.426 86.317 185.968 87.289 184.294 87.991C182.62 88.747 180.811 89.125 178.867 89.125C178.003 89.125 177.247 88.801 176.599 88.153C176.005 87.559 175.708 86.83 175.708 85.966C175.708 85.156 176.005 84.427 176.599 83.779C177.247 83.185 178.003 82.888 178.867 82.888C179.893 82.888 180.865 82.672 181.783 82.24C182.701 81.862 183.484 81.322 184.132 80.62C184.834 79.972 185.374 79.189 185.752 78.271C186.184 77.353 186.4 76.381 186.4 75.355V15.334C186.4 14.47 186.697 13.741 187.291 13.147C187.939 12.499 188.695 12.175 189.559 12.175ZM163.477 73.654C162.991 73.654 162.64 73.6 162.424 73.492C161.614 73.168 161.02 72.628 160.642 71.872C160.318 71.062 160.318 70.252 160.642 69.442C161.02 68.47 161.506 67.012 162.1 65.068C162.748 63.124 163.423 60.937 164.125 58.507C164.881 56.023 165.637 53.431 166.393 50.731C167.149 47.977 167.851 45.331 168.499 42.793C169.147 40.201 169.714 37.825 170.2 35.665C170.686 33.451 171.01 31.642 171.172 30.238C171.28 29.374 171.658 28.672 172.306 28.132C173.008 27.592 173.791 27.403 174.655 27.565C175.465 27.673 176.14 28.051 176.68 28.699C177.22 29.347 177.436 30.103 177.328 30.967C177.112 32.533 176.734 34.504 176.194 36.88C175.708 39.202 175.114 41.713 174.412 44.413C173.764 47.113 173.035 49.894 172.225 52.756C171.415 55.564 170.632 58.237 169.876 60.775C169.174 63.259 168.499 65.473 167.851 67.417C167.257 69.361 166.771 70.792 166.393 71.71C165.853 73.006 164.881 73.654 163.477 73.654ZM207.865 29.59C208.351 30.94 208.918 32.668 209.566 34.774C210.214 36.826 210.889 39.094 211.591 41.578C212.293 44.062 212.995 46.654 213.697 49.354C214.399 52 215.074 54.619 215.722 57.211C216.37 59.749 216.937 62.152 217.423 64.42C217.963 66.634 218.395 68.524 218.719 70.09C218.935 70.9 218.8 71.656 218.314 72.358C217.828 73.06 217.153 73.492 216.289 73.654C216.181 73.708 215.992 73.735 215.722 73.735C214.966 73.735 214.291 73.519 213.697 73.087C213.157 72.601 212.806 71.98 212.644 71.224C212.374 69.712 211.969 67.876 211.429 65.716C210.943 63.556 210.376 61.234 209.728 58.75C209.134 56.212 208.486 53.62 207.784 50.974C207.082 48.328 206.38 45.79 205.678 43.36C204.976 40.93 204.301 38.716 203.653 36.718C203.059 34.666 202.519 32.992 202.033 31.696C201.763 30.886 201.79 30.103 202.114 29.347C202.492 28.537 203.086 27.997 203.896 27.727C204.706 27.403 205.489 27.43 206.245 27.808C207.055 28.186 207.595 28.78 207.865 29.59ZM240.904 58.588C240.31 58.588 239.77 58.426 239.284 58.102C238.528 57.67 238.069 57.049 237.907 56.239C237.745 55.375 237.88 54.565 238.312 53.809C241.228 49.003 243.631 43.927 245.521 38.581C247.465 33.181 248.653 28.078 249.085 23.272H243.496C242.632 23.272 241.903 22.975 241.309 22.381C240.715 21.787 240.418 21.058 240.418 20.194C240.418 19.33 240.715 18.601 241.309 18.007C241.903 17.413 242.632 17.116 243.496 17.116H261.478C262.342 17.116 263.071 17.413 263.665 18.007C264.259 18.601 264.556 19.33 264.556 20.194C264.556 21.058 264.259 21.787 263.665 22.381C263.071 22.975 262.342 23.272 261.478 23.272H255.241C254.809 28.834 253.54 34.612 251.434 40.606H257.266C258.67 40.606 259.858 41.146 260.83 42.226C261.856 43.252 262.369 44.494 262.369 45.952V76.894C262.369 78.298 261.856 79.513 260.83 80.539C259.858 81.565 258.67 82.078 257.266 82.078H249.085C247.681 82.078 246.466 81.565 245.44 80.539C244.468 79.513 243.982 78.298 243.982 76.894V56.401L243.577 57.049C242.875 58.075 241.984 58.588 240.904 58.588ZM278.569 87.829C277.705 87.829 276.976 87.532 276.382 86.938C275.788 86.398 275.491 85.696 275.491 84.832C275.437 83.968 275.68 83.212 276.22 82.564C276.814 81.97 277.57 81.646 278.488 81.592C280.108 81.538 281.593 81.214 282.943 80.62C284.347 80.026 285.562 79.216 286.588 78.19C287.614 77.164 288.424 75.949 289.018 74.545C289.612 73.141 289.963 71.602 290.071 69.928L290.719 54.538H269.092C268.228 54.538 267.445 54.187 266.743 53.485C266.149 52.675 265.879 51.865 265.933 51.055L268.363 26.755C268.471 25.891 268.849 25.189 269.497 24.649C270.199 24.055 270.982 23.812 271.846 23.92C272.71 24.028 273.412 24.406 273.952 25.054C274.492 25.702 274.735 26.458 274.681 27.322L272.575 48.301H283.186L286.102 21.814H269.821C268.903 21.814 268.147 21.517 267.553 20.923C266.959 20.275 266.662 19.519 266.662 18.655C266.662 17.791 266.959 17.062 267.553 16.468C268.147 15.874 268.903 15.577 269.821 15.577H289.585C290.503 15.577 291.259 15.928 291.853 16.63C292.501 17.278 292.771 18.088 292.663 19.06L289.423 48.301H291.772C293.338 48.301 294.607 48.841 295.579 49.921C296.605 51.001 297.064 52.324 296.956 53.89L296.227 70.252C296.119 72.682 295.579 74.95 294.607 77.056C293.689 79.162 292.447 80.998 290.881 82.564C289.315 84.13 287.479 85.372 285.373 86.29C283.267 87.262 280.999 87.775 278.569 87.829ZM250.219 75.922H256.132V46.924H250.219V75.922ZM286.021 70.009H266.905C265.987 70.009 265.231 69.712 264.637 69.118C264.043 68.524 263.746 67.795 263.746 66.931C263.746 66.013 264.043 65.257 264.637 64.663C265.231 64.069 265.987 63.772 266.905 63.772H286.021C286.885 63.772 287.614 64.069 288.208 64.663C288.802 65.257 289.099 66.013 289.099 66.931C289.099 67.795 288.802 68.524 288.208 69.118C287.614 69.712 286.885 70.009 286.021 70.009ZM320.922 24.568C320.058 24.568 319.302 24.271 318.654 23.677C318.06 23.029 317.763 22.3 317.763 21.49C317.763 20.626 318.06 19.897 318.654 19.303C319.302 18.655 320.058 18.331 320.922 18.331H370.17C371.034 18.331 371.763 18.655 372.357 19.303C373.005 19.897 373.329 20.626 373.329 21.49C373.329 22.3 373.005 23.029 372.357 23.677C371.763 24.271 371.034 24.568 370.17 24.568H344.493C343.899 25.864 343.116 27.268 342.144 28.78C341.226 30.292 340.2 31.831 339.066 33.397C337.986 34.963 336.825 36.529 335.583 38.095C334.395 39.607 333.207 41.038 332.019 42.388C334.125 42.226 336.339 42.064 338.661 41.902C340.983 41.686 343.278 41.497 345.546 41.335C347.814 41.119 349.974 40.93 352.026 40.768C354.078 40.552 355.887 40.39 357.453 40.282L352.188 32.344C351.702 31.588 351.54 30.805 351.702 29.995C351.864 29.131 352.323 28.483 353.079 28.051C353.781 27.511 354.537 27.349 355.347 27.565C356.211 27.727 356.886 28.159 357.372 28.861L369.522 47.491C370.008 48.247 370.17 49.057 370.008 49.921C369.846 50.731 369.387 51.379 368.631 51.865C368.145 52.189 367.605 52.351 367.011 52.351C365.823 52.351 364.932 51.892 364.338 50.974L361.26 46.276C360.288 46.33 358.911 46.438 357.129 46.6C355.347 46.762 353.322 46.951 351.054 47.167C348.84 47.329 346.464 47.518 343.926 47.734C341.442 47.95 338.985 48.166 336.555 48.382C334.125 48.544 331.803 48.706 329.589 48.868C327.429 49.03 325.593 49.138 324.081 49.192H323.919C323.325 49.192 322.758 49.003 322.218 48.625C321.678 48.247 321.3 47.761 321.084 47.167C320.868 46.573 320.841 45.952 321.003 45.304C321.165 44.656 321.516 44.116 322.056 43.684C323.028 42.928 324.189 41.821 325.539 40.363C326.889 38.851 328.266 37.204 329.67 35.422C331.128 33.64 332.532 31.804 333.882 29.914C335.286 27.97 336.474 26.188 337.446 24.568H320.922ZM319.383 87.505C318.465 87.505 317.709 87.208 317.115 86.614C316.575 86.02 316.305 85.291 316.305 84.427C316.305 83.563 316.602 82.807 317.196 82.159C317.79 81.565 318.519 81.268 319.383 81.268H342.306V67.579H323.838C322.974 67.579 322.245 67.282 321.651 66.688C321.057 66.094 320.76 65.365 320.76 64.501C320.76 63.637 321.057 62.908 321.651 62.314C322.245 61.666 322.974 61.342 323.838 61.342H342.306V52.189C342.306 51.325 342.603 50.596 343.197 50.002C343.845 49.354 344.601 49.03 345.465 49.03C346.329 49.03 347.058 49.354 347.652 50.002C348.3 50.596 348.624 51.325 348.624 52.189V61.342H367.092C367.902 61.342 368.604 61.666 369.198 62.314C369.846 62.908 370.17 63.637 370.17 64.501C370.17 65.365 369.846 66.094 369.198 66.688C368.604 67.282 367.902 67.579 367.092 67.579H348.624V81.268H370.899C371.709 81.268 372.411 81.565 373.005 82.159C373.653 82.807 373.977 83.563 373.977 84.427C373.977 85.291 373.653 86.02 373.005 86.614C372.411 87.208 371.709 87.505 370.899 87.505H319.383ZM399.807 69.118C399.807 67.876 400.293 66.877 401.265 66.121C402.291 65.311 403.56 64.906 405.072 64.906H441.603C443.169 64.906 444.438 65.311 445.41 66.121C446.436 66.877 446.949 67.876 446.949 69.118V82.402C446.949 83.482 446.49 84.454 445.572 85.318C444.654 86.182 443.331 86.614 441.603 86.614H405.072C403.506 86.614 402.237 86.209 401.265 85.399C400.293 84.643 399.807 83.644 399.807 82.402V69.118ZM409.932 60.208C408.366 60.208 407.07 59.83 406.044 59.074C405.072 58.264 404.586 57.238 404.586 55.996V45.952C404.586 44.71 405.072 43.711 406.044 42.955C407.07 42.145 408.366 41.74 409.932 41.74H436.662C438.228 41.74 439.497 42.145 440.469 42.955C441.441 43.711 441.927 44.71 441.927 45.952V55.996C441.927 57.076 441.468 58.048 440.55 58.912C439.686 59.776 438.39 60.208 436.662 60.208H409.932ZM449.055 18.574C449.973 18.574 450.702 18.898 451.242 19.546C451.836 20.14 452.133 20.869 452.133 21.733C452.133 22.597 451.836 23.326 451.242 23.92C450.648 24.514 449.919 24.811 449.055 24.811H436.743V26.998C436.743 27.862 436.419 28.618 435.771 29.266C435.177 29.86 434.448 30.157 433.584 30.157C432.72 30.157 431.991 29.86 431.397 29.266C430.803 28.618 430.506 27.862 430.506 26.998V24.811H415.197V26.998C415.197 27.862 414.9 28.618 414.306 29.266C413.712 29.86 412.983 30.157 412.119 30.157C411.255 30.157 410.499 29.86 409.851 29.266C409.257 28.618 408.96 27.862 408.96 26.998V24.811H396.729C395.865 24.811 395.136 24.514 394.542 23.92C393.948 23.326 393.651 22.597 393.651 21.733C393.651 20.869 393.948 20.14 394.542 19.546C395.136 18.898 395.865 18.574 396.729 18.574H408.96V15.172C408.96 14.362 409.257 13.66 409.851 13.066C410.499 12.418 411.255 12.094 412.119 12.094C412.983 12.094 413.712 12.418 414.306 13.066C414.9 13.66 415.197 14.362 415.197 15.172V18.574H430.506V15.172C430.506 14.362 430.776 13.66 431.316 13.066C431.91 12.418 432.639 12.094 433.503 12.094C434.367 12.094 435.096 12.418 435.69 13.066C436.338 13.66 436.662 14.362 436.662 15.172V18.574H449.055ZM451.242 44.332C451.242 45.196 450.918 45.925 450.27 46.519C449.676 47.113 448.947 47.41 448.083 47.41C447.273 47.41 446.544 47.113 445.896 46.519C445.302 45.925 445.005 45.196 445.005 44.332V37.042H401.265V44.251C401.265 45.115 400.968 45.844 400.374 46.438C399.78 47.032 399.051 47.329 398.187 47.329C397.323 47.329 396.567 47.032 395.919 46.438C395.325 45.844 395.028 45.115 395.028 44.251V35.827C395.028 34.423 395.541 33.262 396.567 32.344C397.593 31.372 398.862 30.886 400.374 30.886H445.896C447.408 30.886 448.677 31.372 449.703 32.344C450.729 33.262 451.242 34.423 451.242 35.827V44.332ZM406.044 80.377H440.631V71.143H406.044V80.377ZM410.823 53.971H435.69V47.977H410.823V53.971Z" fill="#2E364D"/>
<path fill-rule="evenodd" clip-rule="evenodd" d="M18.6576 3.9602C21.5339 2.32435 25.1667 3.35034 27.0654 6.06031C36.0495 18.8833 48.0417 25.5975 60 25.5975C71.9583 25.5975 83.9505 18.8833 92.9346 6.06031C94.8333 3.35034 98.4661 2.32435 101.342 3.9602L114.774 11.5993C117.658 13.2399 118.68 16.9243 116.848 19.691C103.94 39.1813 83.8668 53 60 53C36.1332 53 16.0604 39.1813 3.15221 19.691C1.31983 16.9243 2.34158 13.2399 5.22618 11.5992L18.6576 3.9602Z" fill="#3464E0"/>
<path fill-rule="evenodd" clip-rule="evenodd" d="M12.0869 40.57C8.59149 37.2196 2 39.5273 2 44.369V86C2 89.3137 4.68629 92 8 92H24C27.3137 92 30 89.3137 30 86V57.5169C30 55.4517 28.9328 53.5395 27.2058 52.4072C21.9205 48.9422 16.87 45.1546 12.0869 40.57Z" fill="#3464E0"/>
<mask id="mask0_6856_61134" style="mask-type:alpha" maskUnits="userSpaceOnUse" x="2" y="38" width="28" height="54">
<path fill-rule="evenodd" clip-rule="evenodd" d="M12.0869 40.57C8.59149 37.2196 2 39.5273 2 44.369V86C2 89.3137 4.68629 92 8 92H24C27.3137 92 30 89.3137 30 86V57.5169C30 55.4517 28.9328 53.5395 27.2058 52.4072C21.9205 48.9422 16.87 45.1546 12.0869 40.57Z" fill="#3464E0"/>
</mask>
<g mask="url(#mask0_6856_61134)">
<path opacity="0.7" d="M32.5 67.6357C6.5 60.1357 -2.5 39.6357 -10 30.6357L-3.5 22.6357L37.5 50.1357C46.1667 58.1357 57.8541 74.9494 32.5 67.6357Z" fill="#274AA6"/>
</g>
<path fill-rule="evenodd" clip-rule="evenodd" d="M107.913 40.57C111.409 37.2196 118 39.5273 118 44.369V86C118 89.3137 115.314 92 112 92H96C92.6863 92 90 89.3137 90 86V57.5169C90 55.4517 91.0672 53.5395 92.7942 52.4072C98.0795 48.9422 103.13 45.1546 107.913 40.57Z" fill="#3464E0"/>
<mask id="mask1_6856_61134" style="mask-type:alpha" maskUnits="userSpaceOnUse" x="90" y="38" width="28" height="54">
<path fill-rule="evenodd" clip-rule="evenodd" d="M107.913 40.57C111.409 37.2196 118 39.5273 118 44.369V86C118 89.3137 115.314 92 112 92H96C92.6863 92 90 89.3137 90 86V57.5169C90 55.4517 91.0672 53.5395 92.7942 52.4072C98.0795 48.9422 103.13 45.1546 107.913 40.57Z" fill="#3464E0"/>
</mask>
<g mask="url(#mask1_6856_61134)">
<path opacity="0.7" d="M87.5 67.6357C113.5 60.1357 122.5 39.6357 130 30.6357L123.5 22.6357L82.5 50.1357C73.8333 58.1357 62.1459 74.9494 87.5 67.6357Z" fill="#274AA6"/>
</g>
</svg>
